<svg xmlns="http://www.w3.org/2000/svg" xmlns:xlink="http://www.w3.org/1999/xlink" width="500" zoomAndPan="magnify" viewBox="0 0 375 374.999991" height="500" preserveAspectRatio="xMidYMid meet" version="1.0"><defs><g/><clipPath id="id1"><path d="M 138.554688 88.191406 L 236.804688 88.191406 L 236.804688 218.691406 L 138.554688 218.691406 Z M 138.554688 88.191406 " clip-rule="nonzero"/></clipPath></defs><g clip-path="url(#id1)"><path fill="#332c54" d="M 236.804688 138.691406 C 236.957031 166.800781 214.074219 189.726562 185.929688 189.726562 L 176.410156 189.726562 L 176.410156 194.835938 C 176.410156 195.617188 176.371094 196.394531 176.292969 197.171875 C 176.21875 197.949219 176.101562 198.71875 175.949219 199.484375 C 175.796875 200.25 175.605469 201.003906 175.378906 201.753906 C 175.152344 202.5 174.890625 203.234375 174.589844 203.953125 C 174.292969 204.675781 173.957031 205.378906 173.589844 206.066406 C 173.21875 206.753906 172.816406 207.425781 172.382812 208.074219 C 171.949219 208.722656 171.484375 209.347656 170.988281 209.953125 C 170.492188 210.554688 169.96875 211.132812 169.414062 211.683594 C 168.859375 212.234375 168.28125 212.757812 167.675781 213.253906 C 167.074219 213.75 166.445312 214.214844 165.796875 214.648438 C 165.144531 215.082031 164.476562 215.480469 163.785156 215.851562 C 163.09375 216.21875 162.390625 216.550781 161.667969 216.851562 C 160.945312 217.148438 160.207031 217.410156 159.460938 217.636719 C 158.710938 217.867188 157.953125 218.054688 157.1875 218.207031 C 156.417969 218.359375 155.648438 218.472656 154.867188 218.550781 C 154.089844 218.628906 153.308594 218.667969 152.527344 218.667969 L 138.554688 218.667969 L 138.554688 135.132812 C 138.554688 134.375 138.589844 133.621094 138.664062 132.867188 C 138.738281 132.113281 138.851562 131.367188 138.996094 130.625 C 139.144531 129.882812 139.328125 129.148438 139.550781 128.425781 C 139.769531 127.703125 140.023438 126.992188 140.3125 126.292969 C 140.605469 125.59375 140.929688 124.910156 141.285156 124.242188 C 141.644531 123.574219 142.03125 122.925781 142.453125 122.296875 C 142.875 121.667969 143.324219 121.0625 143.808594 120.476562 C 144.289062 119.890625 144.796875 119.332031 145.332031 118.796875 C 145.867188 118.261719 146.429688 117.753906 147.015625 117.273438 C 147.601562 116.792969 148.210938 116.34375 148.839844 115.921875 C 149.472656 115.503906 150.121094 115.113281 150.789062 114.757812 C 151.460938 114.398438 152.144531 114.078125 152.84375 113.789062 C 153.546875 113.496094 154.257812 113.242188 154.984375 113.023438 C 155.710938 112.804688 156.445312 112.621094 157.1875 112.472656 C 157.933594 112.324219 158.679688 112.214844 159.4375 112.140625 C 160.191406 112.066406 160.949219 112.027344 161.707031 112.027344 L 184.277344 112.027344 C 198.667969 112.027344 210.375 123.714844 210.359375 138.070312 C 210.359375 152.378906 198.386719 164.089844 184.042969 164.089844 L 164.136719 164.089844 L 164.136719 130.394531 C 164.886719 130.394531 165.628906 130.464844 166.363281 130.613281 C 167.097656 130.757812 167.8125 130.972656 168.507812 131.261719 C 169.199219 131.546875 169.859375 131.898438 170.480469 132.3125 C 171.105469 132.730469 171.683594 133.203125 172.210938 133.730469 C 172.742188 134.261719 173.214844 134.835938 173.632812 135.457031 C 174.050781 136.082031 174.402344 136.738281 174.6875 137.429688 C 174.976562 138.121094 175.191406 138.832031 175.339844 139.566406 C 175.484375 140.300781 175.558594 141.039062 175.558594 141.789062 L 175.558594 152.691406 L 184.277344 152.691406 C 185.242188 152.6875 186.199219 152.59375 187.148438 152.402344 C 188.09375 152.210938 189.011719 151.933594 189.90625 151.5625 C 190.796875 151.191406 191.644531 150.734375 192.445312 150.199219 C 193.246094 149.660156 193.988281 149.050781 194.667969 148.367188 C 195.351562 147.683594 195.957031 146.9375 196.492188 146.136719 C 197.027344 145.332031 197.476562 144.484375 197.839844 143.59375 C 198.207031 142.703125 198.484375 141.78125 198.667969 140.835938 C 198.851562 139.890625 198.941406 138.933594 198.9375 137.972656 C 198.890625 129.898438 192.203125 123.425781 184.109375 123.425781 L 161.707031 123.425781 C 160.933594 123.425781 160.171875 123.5 159.417969 123.648438 C 158.660156 123.800781 157.925781 124.019531 157.214844 124.316406 C 156.503906 124.609375 155.828125 124.96875 155.1875 125.398438 C 154.546875 125.824219 153.953125 126.308594 153.410156 126.851562 C 152.863281 127.398438 152.378906 127.988281 151.949219 128.628906 C 151.523438 129.265625 151.160156 129.941406 150.867188 130.652344 C 150.574219 131.363281 150.351562 132.09375 150.199219 132.847656 C 150.050781 133.601562 149.976562 134.363281 149.976562 135.132812 L 149.976562 207.269531 L 152.527344 207.269531 C 153.347656 207.269531 154.15625 207.191406 154.960938 207.03125 C 155.761719 206.871094 156.542969 206.636719 157.296875 206.324219 C 158.054688 206.011719 158.773438 205.628906 159.453125 205.175781 C 160.132812 204.722656 160.761719 204.207031 161.339844 203.628906 C 161.917969 203.050781 162.4375 202.421875 162.890625 201.742188 C 163.347656 201.066406 163.730469 200.347656 164.042969 199.59375 C 164.355469 198.839844 164.59375 198.0625 164.753906 197.261719 C 164.910156 196.460938 164.992188 195.652344 164.992188 194.835938 L 164.992188 178.332031 L 185.933594 178.332031 C 207.636719 178.332031 225.296875 160.761719 225.386719 139.136719 C 225.46875 117.398438 207.457031 99.613281 185.667969 99.613281 L 161.953125 99.613281 C 160.628906 99.613281 159.316406 99.730469 158.011719 99.960938 C 156.710938 100.191406 155.4375 100.535156 154.195312 100.988281 C 152.949219 101.445312 151.757812 102.003906 150.613281 102.667969 C 149.46875 103.332031 148.390625 104.089844 147.382812 104.945312 C 146.371094 105.796875 145.445312 106.734375 144.601562 107.75 C 143.753906 108.765625 143.003906 109.847656 142.351562 110.996094 C 141.699219 112.144531 141.148438 113.339844 140.707031 114.585938 C 140.261719 115.832031 139.933594 117.105469 139.714844 118.40625 C 139.714844 98.296875 150.816406 88.21875 174.226562 88.21875 L 185.648438 88.21875 C 213.683594 88.21875 236.648438 110.722656 236.804688 138.691406 Z M 236.804688 138.691406 " fill-opacity="1" fill-rule="nonzero"/></g><g fill="#332c54" fill-opacity="1"><g transform="translate(48.347246, 283.607355)"><g><path d="M 5 -9.15625 C 6.175781 -9.15625 7.09375 -8.867188 7.75 -8.296875 C 8.40625 -7.734375 8.78125 -6.988281 8.875 -6.0625 L 8.890625 -5.921875 L 7.09375 -5.921875 L 7.078125 -6.0625 C 6.835938 -7.226562 6.140625 -7.8125 4.984375 -7.8125 C 4.253906 -7.8125 3.664062 -7.519531 3.21875 -6.9375 C 2.78125 -6.351562 2.5625 -5.550781 2.5625 -4.53125 C 2.5625 -3.445312 2.78125 -2.613281 3.21875 -2.03125 C 3.664062 -1.445312 4.242188 -1.15625 4.953125 -1.15625 C 5.523438 -1.15625 5.984375 -1.316406 6.328125 -1.640625 C 6.671875 -1.960938 6.90625 -2.410156 7.03125 -2.984375 L 7.0625 -3.109375 L 8.84375 -3.109375 L 8.828125 -2.984375 C 8.734375 -2.003906 8.332031 -1.226562 7.625 -0.65625 C 6.925781 -0.09375 6.007812 0.1875 4.875 0.1875 C 3.613281 0.1875 2.59375 -0.226562 1.8125 -1.0625 C 1.039062 -1.894531 0.65625 -3.019531 0.65625 -4.4375 C 0.65625 -5.875 1.0625 -7.019531 1.875 -7.875 C 2.695312 -8.726562 3.738281 -9.15625 5 -9.15625 Z M 5 -9.15625 "/></g></g></g><g fill="#332c54" fill-opacity="1"><g transform="translate(63.060381, 283.607355)"><g><path d="M 1.296875 -6.078125 C 1.929688 -6.753906 2.8125 -7.09375 3.9375 -7.09375 C 5.0625 -7.09375 5.941406 -6.753906 6.578125 -6.078125 C 7.210938 -5.410156 7.53125 -4.535156 7.53125 -3.453125 C 7.53125 -2.378906 7.210938 -1.503906 6.578125 -0.828125 C 5.941406 -0.148438 5.0625 0.1875 3.9375 0.1875 C 2.8125 0.1875 1.929688 -0.148438 1.296875 -0.828125 C 0.660156 -1.503906 0.34375 -2.378906 0.34375 -3.453125 C 0.34375 -4.535156 0.660156 -5.410156 1.296875 -6.078125 Z M 2.671875 -1.703125 C 2.984375 -1.285156 3.40625 -1.078125 3.9375 -1.078125 C 4.476562 -1.078125 4.898438 -1.285156 5.203125 -1.703125 C 5.515625 -2.128906 5.671875 -2.710938 5.671875 -3.453125 C 5.671875 -4.203125 5.515625 -4.785156 5.203125 -5.203125 C 4.898438 -5.628906 4.476562 -5.84375 3.9375 -5.84375 C 3.40625 -5.84375 2.984375 -5.628906 2.671875 -5.203125 C 2.359375 -4.785156 2.203125 -4.203125 2.203125 -3.453125 C 2.203125 -2.710938 2.359375 -2.128906 2.671875 -1.703125 Z M 2.671875 -1.703125 "/></g></g></g><g fill="#332c54" fill-opacity="1"><g transform="translate(76.317953, 283.607355)"><g><path d="M 7.546875 -9.5625 L 7.546875 0 L 5.75 0 L 5.75 -1.0625 L 5.21875 -0.296875 C 4.8125 0.0234375 4.21875 0.1875 3.4375 0.1875 C 2.476562 0.1875 1.722656 -0.132812 1.171875 -0.78125 C 0.617188 -1.4375 0.34375 -2.285156 0.34375 -3.328125 C 0.34375 -4.523438 0.660156 -5.453125 1.296875 -6.109375 C 1.929688 -6.765625 2.722656 -7.09375 3.671875 -7.09375 C 4.378906 -7.09375 4.921875 -6.960938 5.296875 -6.703125 L 5.75 -6 L 5.75 -9.5625 Z M 3.953125 -1.078125 C 4.492188 -1.078125 4.925781 -1.257812 5.25 -1.625 C 5.582031 -2 5.75 -2.582031 5.75 -3.375 L 5.75 -3.71875 C 5.75 -4.4375 5.578125 -4.96875 5.234375 -5.3125 C 4.898438 -5.664062 4.492188 -5.84375 4.015625 -5.84375 C 3.484375 -5.84375 3.046875 -5.632812 2.703125 -5.21875 C 2.367188 -4.8125 2.203125 -4.21875 2.203125 -3.4375 C 2.203125 -2.726562 2.359375 -2.15625 2.671875 -1.71875 C 2.992188 -1.289062 3.421875 -1.078125 3.953125 -1.078125 Z M 3.953125 -1.078125 "/></g></g></g><g fill="#332c54" fill-opacity="1"><g transform="translate(90.082371, 283.607355)"><g><path d="M 7.09375 -3.59375 C 7.09375 -3.34375 7.085938 -3.140625 7.078125 -2.984375 L 2.15625 -2.984375 C 2.257812 -1.710938 2.789062 -1.078125 3.75 -1.078125 C 4.144531 -1.078125 4.46875 -1.179688 4.71875 -1.390625 C 4.976562 -1.597656 5.140625 -1.882812 5.203125 -2.25 L 7 -2.25 C 6.820312 -1.457031 6.441406 -0.851562 5.859375 -0.4375 C 5.273438 -0.0195312 4.5625 0.1875 3.71875 0.1875 C 2.71875 0.1875 1.90625 -0.117188 1.28125 -0.734375 C 0.65625 -1.359375 0.34375 -2.257812 0.34375 -3.4375 C 0.34375 -4.507812 0.664062 -5.382812 1.3125 -6.0625 C 1.957031 -6.75 2.804688 -7.09375 3.859375 -7.09375 C 4.867188 -7.09375 5.660156 -6.757812 6.234375 -6.09375 C 6.804688 -5.425781 7.09375 -4.59375 7.09375 -3.59375 Z M 3.78125 -5.84375 C 2.882812 -5.84375 2.359375 -5.28125 2.203125 -4.15625 L 5.25 -4.15625 C 5.125 -5.28125 4.632812 -5.84375 3.78125 -5.84375 Z M 3.78125 -5.84375 "/></g></g></g><g fill="#332c54" fill-opacity="1"><g transform="translate(102.976056, 283.607355)"><g><path d="M 4.34375 -7.078125 C 4.539062 -7.078125 4.707031 -7.0625 4.84375 -7.03125 L 4.84375 -5.59375 C 4.082031 -5.644531 3.519531 -5.476562 3.15625 -5.09375 C 2.789062 -4.71875 2.609375 -4.078125 2.609375 -3.171875 L 2.609375 0 L 0.8125 0 L 0.8125 -6.921875 L 2.609375 -6.921875 L 2.609375 -5.65625 L 3.15625 -6.609375 C 3.5 -6.921875 3.894531 -7.078125 4.34375 -7.078125 Z M 4.34375 -7.078125 "/></g></g></g><g fill="#332c54" fill-opacity="1"><g transform="translate(113.296538, 283.607355)"><g><path d="M 2.4375 2.59375 L 1.265625 2.59375 L 1.265625 -10.40625 L 2.4375 -10.40625 Z M 2.4375 2.59375 "/></g></g></g><g fill="#332c54" fill-opacity="1"><g transform="translate(122.369396, 283.607355)"><g><path d="M 2.953125 0 L 1.15625 0 L 1.15625 -8.96875 L 2.953125 -8.96875 Z M 2.953125 0 "/></g></g></g><g fill="#332c54" fill-opacity="1"><g transform="translate(131.546224, 283.607355)"><g><path d="M 7.265625 -5.15625 C 7.296875 -4.84375 7.3125 -4.425781 7.3125 -3.90625 L 7.3125 0 L 5.53125 0 L 5.53125 -3.65625 C 5.53125 -4.0625 5.519531 -4.378906 5.5 -4.609375 C 5.4375 -5.429688 4.992188 -5.84375 4.171875 -5.84375 C 3.703125 -5.84375 3.320312 -5.625 3.03125 -5.1875 C 2.75 -4.75 2.609375 -4.070312 2.609375 -3.15625 L 2.609375 0 L 0.8125 0 L 0.8125 -6.921875 L 2.609375 -6.921875 L 2.609375 -5.796875 L 3.140625 -6.609375 C 3.597656 -6.929688 4.15625 -7.09375 4.8125 -7.09375 C 5.539062 -7.09375 6.113281 -6.921875 6.53125 -6.578125 C 6.945312 -6.242188 7.191406 -5.769531 7.265625 -5.15625 Z M 7.265625 -5.15625 "/></g></g></g><g fill="#332c54" fill-opacity="1"><g transform="translate(144.99873, 283.607355)"><g><path d="M 7.265625 -5.15625 C 7.296875 -4.84375 7.3125 -4.425781 7.3125 -3.90625 L 7.3125 0 L 5.53125 0 L 5.53125 -3.65625 C 5.53125 -4.0625 5.519531 -4.378906 5.5 -4.609375 C 5.4375 -5.429688 4.992188 -5.84375 4.171875 -5.84375 C 3.703125 -5.84375 3.320312 -5.625 3.03125 -5.1875 C 2.75 -4.75 2.609375 -4.070312 2.609375 -3.15625 L 2.609375 0 L 0.8125 0 L 0.8125 -6.921875 L 2.609375 -6.921875 L 2.609375 -5.796875 L 3.140625 -6.609375 C 3.597656 -6.929688 4.15625 -7.09375 4.8125 -7.09375 C 5.539062 -7.09375 6.113281 -6.921875 6.53125 -6.578125 C 6.945312 -6.242188 7.191406 -5.769531 7.265625 -5.15625 Z M 7.265625 -5.15625 "/></g></g></g><g fill="#332c54" fill-opacity="1"><g transform="translate(158.451236, 283.607355)"><g><path d="M 1.296875 -6.078125 C 1.929688 -6.753906 2.8125 -7.09375 3.9375 -7.09375 C 5.0625 -7.09375 5.941406 -6.753906 6.578125 -6.078125 C 7.210938 -5.410156 7.53125 -4.535156 7.53125 -3.453125 C 7.53125 -2.378906 7.210938 -1.503906 6.578125 -0.828125 C 5.941406 -0.148438 5.0625 0.1875 3.9375 0.1875 C 2.8125 0.1875 1.929688 -0.148438 1.296875 -0.828125 C 0.660156 -1.503906 0.34375 -2.378906 0.34375 -3.453125 C 0.34375 -4.535156 0.660156 -5.410156 1.296875 -6.078125 Z M 2.671875 -1.703125 C 2.984375 -1.285156 3.40625 -1.078125 3.9375 -1.078125 C 4.476562 -1.078125 4.898438 -1.285156 5.203125 -1.703125 C 5.515625 -2.128906 5.671875 -2.710938 5.671875 -3.453125 C 5.671875 -4.203125 5.515625 -4.785156 5.203125 -5.203125 C 4.898438 -5.628906 4.476562 -5.84375 3.9375 -5.84375 C 3.40625 -5.84375 2.984375 -5.628906 2.671875 -5.203125 C 2.359375 -4.785156 2.203125 -4.203125 2.203125 -3.453125 C 2.203125 -2.710938 2.359375 -2.128906 2.671875 -1.703125 Z M 2.671875 -1.703125 "/></g></g></g><g fill="#332c54" fill-opacity="1"><g transform="translate(171.708804, 283.607355)"><g><path d="M 7.375 -6.921875 L 4.6875 0 L 2.6875 0 L 0 -6.921875 L 1.984375 -6.921875 L 3.734375 -1.359375 L 5.4375 -6.921875 Z M 7.375 -6.921875 "/></g></g></g><g fill="#332c54" fill-opacity="1"><g transform="translate(184.446535, 283.607355)"><g><path d="M 4.84375 0 L 4.703125 -1.015625 L 4.375 -0.265625 C 3.914062 0.0351562 3.34375 0.1875 2.65625 0.1875 C 2.019531 0.1875 1.488281 0.0078125 1.0625 -0.34375 C 0.632812 -0.707031 0.421875 -1.203125 0.421875 -1.828125 C 0.421875 -2.597656 0.742188 -3.1875 1.390625 -3.59375 C 2.035156 -4.007812 2.984375 -4.21875 4.234375 -4.21875 L 4.6875 -4.21875 L 4.6875 -4.359375 C 4.6875 -4.628906 4.675781 -4.84375 4.65625 -5 C 4.59375 -5.5625 4.238281 -5.84375 3.59375 -5.84375 C 2.875 -5.84375 2.488281 -5.453125 2.4375 -4.671875 L 0.6875 -4.65625 C 0.71875 -5.414062 1.003906 -6.007812 1.546875 -6.4375 C 2.097656 -6.875 2.800781 -7.09375 3.65625 -7.09375 C 5.375 -7.09375 6.296875 -6.414062 6.421875 -5.0625 C 6.453125 -4.726562 6.46875 -4.367188 6.46875 -3.984375 L 6.46875 -1.75 C 6.46875 -1.226562 6.507812 -0.644531 6.59375 0 Z M 3.34375 -1.078125 C 3.71875 -1.078125 4.035156 -1.207031 4.296875 -1.46875 C 4.554688 -1.726562 4.6875 -2.085938 4.6875 -2.546875 L 4.6875 -3.109375 C 3.082031 -3.222656 2.28125 -2.84375 2.28125 -1.96875 C 2.28125 -1.375 2.632812 -1.078125 3.34375 -1.078125 Z M 3.34375 -1.078125 "/></g></g></g><g fill="#332c54" fill-opacity="1"><g transform="translate(197.132276, 283.607355)"><g><path d="M 2.96875 -5.6875 L 2.96875 -2.484375 C 2.96875 -2.191406 2.972656 -1.988281 2.984375 -1.875 C 3.003906 -1.53125 3.097656 -1.304688 3.265625 -1.203125 C 3.441406 -1.109375 3.78125 -1.082031 4.28125 -1.125 L 4.28125 0.046875 C 3.90625 0.109375 3.507812 0.140625 3.09375 0.140625 C 2.4375 0.140625 1.96875 0.03125 1.6875 -0.1875 C 1.40625 -0.40625 1.242188 -0.769531 1.203125 -1.28125 C 1.179688 -1.488281 1.171875 -1.820312 1.171875 -2.28125 L 1.171875 -5.6875 L 0.15625 -5.6875 L 0.15625 -6.859375 L 1.171875 -6.859375 L 1.171875 -8.5625 L 2.96875 -8.5625 L 2.96875 -6.859375 L 4.390625 -6.859375 L 4.390625 -5.6875 Z M 2.96875 -5.6875 "/></g></g></g><g fill="#332c54" fill-opacity="1"><g transform="translate(207.205822, 283.607355)"><g><path d="M 1.296875 -6.078125 C 1.929688 -6.753906 2.8125 -7.09375 3.9375 -7.09375 C 5.0625 -7.09375 5.941406 -6.753906 6.578125 -6.078125 C 7.210938 -5.410156 7.53125 -4.535156 7.53125 -3.453125 C 7.53125 -2.378906 7.210938 -1.503906 6.578125 -0.828125 C 5.941406 -0.148438 5.0625 0.1875 3.9375 0.1875 C 2.8125 0.1875 1.929688 -0.148438 1.296875 -0.828125 C 0.660156 -1.503906 0.34375 -2.378906 0.34375 -3.453125 C 0.34375 -4.535156 0.660156 -5.410156 1.296875 -6.078125 Z M 2.671875 -1.703125 C 2.984375 -1.285156 3.40625 -1.078125 3.9375 -1.078125 C 4.476562 -1.078125 4.898438 -1.285156 5.203125 -1.703125 C 5.515625 -2.128906 5.671875 -2.710938 5.671875 -3.453125 C 5.671875 -4.203125 5.515625 -4.785156 5.203125 -5.203125 C 4.898438 -5.628906 4.476562 -5.84375 3.9375 -5.84375 C 3.40625 -5.84375 2.984375 -5.628906 2.671875 -5.203125 C 2.359375 -4.785156 2.203125 -4.203125 2.203125 -3.453125 C 2.203125 -2.710938 2.359375 -2.128906 2.671875 -1.703125 Z M 2.671875 -1.703125 "/></g></g></g><g fill="#332c54" fill-opacity="1"><g transform="translate(220.46339, 283.607355)"><g><path d="M 4.34375 -7.078125 C 4.539062 -7.078125 4.707031 -7.0625 4.84375 -7.03125 L 4.84375 -5.59375 C 4.082031 -5.644531 3.519531 -5.476562 3.15625 -5.09375 C 2.789062 -4.71875 2.609375 -4.078125 2.609375 -3.171875 L 2.609375 0 L 0.8125 0 L 0.8125 -6.921875 L 2.609375 -6.921875 L 2.609375 -5.65625 L 3.15625 -6.609375 C 3.5 -6.921875 3.894531 -7.078125 4.34375 -7.078125 Z M 4.34375 -7.078125 "/></g></g></g><g fill="#332c54" fill-opacity="1"><g transform="translate(230.783866, 283.607355)"><g><path d="M 2.4375 2.59375 L 1.265625 2.59375 L 1.265625 -10.40625 L 2.4375 -10.40625 Z M 2.4375 2.59375 "/></g></g></g><g fill="#332c54" fill-opacity="1"><g transform="translate(239.856718, 283.607355)"><g/></g></g><g fill="#332c54" fill-opacity="1"><g transform="translate(247.759939, 283.607355)"><g><path d="M 5 -9.15625 C 6.175781 -9.15625 7.09375 -8.867188 7.75 -8.296875 C 8.40625 -7.734375 8.78125 -6.988281 8.875 -6.0625 L 8.890625 -5.921875 L 7.09375 -5.921875 L 7.078125 -6.0625 C 6.835938 -7.226562 6.140625 -7.8125 4.984375 -7.8125 C 4.253906 -7.8125 3.664062 -7.519531 3.21875 -6.9375 C 2.78125 -6.351562 2.5625 -5.550781 2.5625 -4.53125 C 2.5625 -3.445312 2.78125 -2.613281 3.21875 -2.03125 C 3.664062 -1.445312 4.242188 -1.15625 4.953125 -1.15625 C 5.523438 -1.15625 5.984375 -1.316406 6.328125 -1.640625 C 6.671875 -1.960938 6.90625 -2.410156 7.03125 -2.984375 L 7.0625 -3.109375 L 8.84375 -3.109375 L 8.828125 -2.984375 C 8.734375 -2.003906 8.332031 -1.226562 7.625 -0.65625 C 6.925781 -0.09375 6.007812 0.1875 4.875 0.1875 C 3.613281 0.1875 2.59375 -0.226562 1.8125 -1.0625 C 1.039062 -1.894531 0.65625 -3.019531 0.65625 -4.4375 C 0.65625 -5.875 1.0625 -7.019531 1.875 -7.875 C 2.695312 -8.726562 3.738281 -9.15625 5 -9.15625 Z M 5 -9.15625 "/></g></g></g><g fill="#332c54" fill-opacity="1"><g transform="translate(262.47308, 283.607355)"><g><path d="M 4.34375 -7.078125 C 4.539062 -7.078125 4.707031 -7.0625 4.84375 -7.03125 L 4.84375 -5.59375 C 4.082031 -5.644531 3.519531 -5.476562 3.15625 -5.09375 C 2.789062 -4.71875 2.609375 -4.078125 2.609375 -3.171875 L 2.609375 0 L 0.8125 0 L 0.8125 -6.921875 L 2.609375 -6.921875 L 2.609375 -5.65625 L 3.15625 -6.609375 C 3.5 -6.921875 3.894531 -7.078125 4.34375 -7.078125 Z M 4.34375 -7.078125 "/></g></g></g><g fill="#332c54" fill-opacity="1"><g transform="translate(272.793568, 283.607355)"><g><path d="M 7.09375 -3.59375 C 7.09375 -3.34375 7.085938 -3.140625 7.078125 -2.984375 L 2.15625 -2.984375 C 2.257812 -1.710938 2.789062 -1.078125 3.75 -1.078125 C 4.144531 -1.078125 4.46875 -1.179688 4.71875 -1.390625 C 4.976562 -1.597656 5.140625 -1.882812 5.203125 -2.25 L 7 -2.25 C 6.820312 -1.457031 6.441406 -0.851562 5.859375 -0.4375 C 5.273438 -0.0195312 4.5625 0.1875 3.71875 0.1875 C 2.71875 0.1875 1.90625 -0.117188 1.28125 -0.734375 C 0.65625 -1.359375 0.34375 -2.257812 0.34375 -3.4375 C 0.34375 -4.507812 0.664062 -5.382812 1.3125 -6.0625 C 1.957031 -6.75 2.804688 -7.09375 3.859375 -7.09375 C 4.867188 -7.09375 5.660156 -6.757812 6.234375 -6.09375 C 6.804688 -5.425781 7.09375 -4.59375 7.09375 -3.59375 Z M 3.78125 -5.84375 C 2.882812 -5.84375 2.359375 -5.28125 2.203125 -4.15625 L 5.25 -4.15625 C 5.125 -5.28125 4.632812 -5.84375 3.78125 -5.84375 Z M 3.78125 -5.84375 "/></g></g></g><g fill="#332c54" fill-opacity="1"><g transform="translate(285.687259, 283.607355)"><g><path d="M 4.84375 0 L 4.703125 -1.015625 L 4.375 -0.265625 C 3.914062 0.0351562 3.34375 0.1875 2.65625 0.1875 C 2.019531 0.1875 1.488281 0.0078125 1.0625 -0.34375 C 0.632812 -0.707031 0.421875 -1.203125 0.421875 -1.828125 C 0.421875 -2.597656 0.742188 -3.1875 1.390625 -3.59375 C 2.035156 -4.007812 2.984375 -4.21875 4.234375 -4.21875 L 4.6875 -4.21875 L 4.6875 -4.359375 C 4.6875 -4.628906 4.675781 -4.84375 4.65625 -5 C 4.59375 -5.5625 4.238281 -5.84375 3.59375 -5.84375 C 2.875 -5.84375 2.488281 -5.453125 2.4375 -4.671875 L 0.6875 -4.65625 C 0.71875 -5.414062 1.003906 -6.007812 1.546875 -6.4375 C 2.097656 -6.875 2.800781 -7.09375 3.65625 -7.09375 C 5.375 -7.09375 6.296875 -6.414062 6.421875 -5.0625 C 6.453125 -4.726562 6.46875 -4.367188 6.46875 -3.984375 L 6.46875 -1.75 C 6.46875 -1.226562 6.507812 -0.644531 6.59375 0 Z M 3.34375 -1.078125 C 3.71875 -1.078125 4.035156 -1.207031 4.296875 -1.46875 C 4.554688 -1.726562 4.6875 -2.085938 4.6875 -2.546875 L 4.6875 -3.109375 C 3.082031 -3.222656 2.28125 -2.84375 2.28125 -1.96875 C 2.28125 -1.375 2.632812 -1.078125 3.34375 -1.078125 Z M 3.34375 -1.078125 "/></g></g></g><g fill="#332c54" fill-opacity="1"><g transform="translate(298.37301, 283.607355)"><g><path d="M 2.96875 -5.6875 L 2.96875 -2.484375 C 2.96875 -2.191406 2.972656 -1.988281 2.984375 -1.875 C 3.003906 -1.53125 3.097656 -1.304688 3.265625 -1.203125 C 3.441406 -1.109375 3.78125 -1.082031 4.28125 -1.125 L 4.28125 0.046875 C 3.90625 0.109375 3.507812 0.140625 3.09375 0.140625 C 2.4375 0.140625 1.96875 0.03125 1.6875 -0.1875 C 1.40625 -0.40625 1.242188 -0.769531 1.203125 -1.28125 C 1.179688 -1.488281 1.171875 -1.820312 1.171875 -2.28125 L 1.171875 -5.6875 L 0.15625 -5.6875 L 0.15625 -6.859375 L 1.171875 -6.859375 L 1.171875 -8.5625 L 2.96875 -8.5625 L 2.96875 -6.859375 L 4.390625 -6.859375 L 4.390625 -5.6875 Z M 2.96875 -5.6875 "/></g></g></g><g fill="#332c54" fill-opacity="1"><g transform="translate(308.446557, 283.607355)"><g><path d="M 1.296875 -6.078125 C 1.929688 -6.753906 2.8125 -7.09375 3.9375 -7.09375 C 5.0625 -7.09375 5.941406 -6.753906 6.578125 -6.078125 C 7.210938 -5.410156 7.53125 -4.535156 7.53125 -3.453125 C 7.53125 -2.378906 7.210938 -1.503906 6.578125 -0.828125 C 5.941406 -0.148438 5.0625 0.1875 3.9375 0.1875 C 2.8125 0.1875 1.929688 -0.148438 1.296875 -0.828125 C 0.660156 -1.503906 0.34375 -2.378906 0.34375 -3.453125 C 0.34375 -4.535156 0.660156 -5.410156 1.296875 -6.078125 Z M 2.671875 -1.703125 C 2.984375 -1.285156 3.40625 -1.078125 3.9375 -1.078125 C 4.476562 -1.078125 4.898438 -1.285156 5.203125 -1.703125 C 5.515625 -2.128906 5.671875 -2.710938 5.671875 -3.453125 C 5.671875 -4.203125 5.515625 -4.785156 5.203125 -5.203125 C 4.898438 -5.628906 4.476562 -5.84375 3.9375 -5.84375 C 3.40625 -5.84375 2.984375 -5.628906 2.671875 -5.203125 C 2.359375 -4.785156 2.203125 -4.203125 2.203125 -3.453125 C 2.203125 -2.710938 2.359375 -2.128906 2.671875 -1.703125 Z M 2.671875 -1.703125 "/></g></g></g><g fill="#332c54" fill-opacity="1"><g transform="translate(321.704125, 283.607355)"><g><path d="M 4.34375 -7.078125 C 4.539062 -7.078125 4.707031 -7.0625 4.84375 -7.03125 L 4.84375 -5.59375 C 4.082031 -5.644531 3.519531 -5.476562 3.15625 -5.09375 C 2.789062 -4.71875 2.609375 -4.078125 2.609375 -3.171875 L 2.609375 0 L 0.8125 0 L 0.8125 -6.921875 L 2.609375 -6.921875 L 2.609375 -5.65625 L 3.15625 -6.609375 C 3.5 -6.921875 3.894531 -7.078125 4.34375 -7.078125 Z M 4.34375 -7.078125 "/></g></g></g><g fill="#332c54" fill-opacity="1"><g transform="translate(80.816404, 263.657371)"><g><path d="M 8.953125 0 L 2.09375 0 L 2.09375 -24.84375 L 11.515625 -24.84375 C 15.367188 -24.84375 18.207031 -24.148438 20.03125 -22.765625 C 21.863281 -21.378906 22.78125 -19.351562 22.78125 -16.6875 C 22.78125 -14.914062 22.300781 -13.390625 21.34375 -12.109375 C 20.394531 -10.828125 19.046875 -9.84375 17.296875 -9.15625 C 15.546875 -8.46875 13.457031 -8.125 11.03125 -8.125 L 8.953125 -8.125 Z M 11.71875 -19.21875 L 8.953125 -19.21875 L 8.953125 -13.796875 L 11.375 -13.796875 C 12.820312 -13.796875 13.921875 -14.015625 14.671875 -14.453125 C 15.429688 -14.898438 15.8125 -15.625 15.8125 -16.625 C 15.8125 -17.507812 15.484375 -18.160156 14.828125 -18.578125 C 14.179688 -19.003906 13.144531 -19.21875 11.71875 -19.21875 Z M 11.71875 -19.21875 "/></g></g></g><g fill="#332c54" fill-opacity="1"><g transform="translate(112.55621, 263.657371)"><g><path d="M 24.015625 -6.4375 L 25.625 -1.046875 C 25.0625 -0.609375 24.3125 -0.253906 23.375 0.015625 C 22.445312 0.285156 21.503906 0.421875 20.546875 0.421875 C 18.703125 0.421875 17.171875 0.0820312 15.953125 -0.59375 C 14.742188 -1.269531 13.765625 -2.226562 13.015625 -3.46875 L 10.703125 -7.34375 C 10.429688 -7.8125 10.164062 -8.160156 9.90625 -8.390625 C 9.644531 -8.628906 9.328125 -8.785156 8.953125 -8.859375 L 8.953125 0 L 2.09375 0 L 2.09375 -24.84375 L 10.5 -24.84375 C 14.320312 -24.84375 17.148438 -24.117188 18.984375 -22.671875 C 20.816406 -21.234375 21.734375 -19.226562 21.734375 -16.65625 C 21.734375 -14.84375 21.207031 -13.332031 20.15625 -12.125 C 19.101562 -10.925781 17.71875 -10.082031 16 -9.59375 C 16.882812 -9.3125 17.582031 -8.785156 18.09375 -8.015625 L 18.71875 -7.0625 C 19.300781 -6.15625 20.203125 -5.703125 21.421875 -5.703125 C 21.859375 -5.703125 22.289062 -5.753906 22.71875 -5.859375 C 23.15625 -5.960938 23.585938 -6.15625 24.015625 -6.4375 Z M 10.4375 -19.21875 L 8.953125 -19.21875 L 8.953125 -14.28125 L 10.75 -14.28125 C 12.257812 -14.28125 13.3125 -14.484375 13.90625 -14.890625 C 14.507812 -15.296875 14.8125 -15.929688 14.8125 -16.796875 C 14.8125 -17.734375 14.40625 -18.367188 13.59375 -18.703125 C 12.789062 -19.046875 11.738281 -19.21875 10.4375 -19.21875 Z M 10.4375 -19.21875 "/></g></g></g><g fill="#332c54" fill-opacity="1"><g transform="translate(145.310786, 263.657371)"><g><path d="M -1.359375 0 L 9.59375 -24.84375 L 15.40625 -24.84375 L 25.96875 0 L 18.90625 0 L 17.15625 -4.4375 L 7.53125 -4.4375 L 5.703125 0 Z M 9.90625 -10.21875 L 14.84375 -10.21875 L 12.421875 -16.3125 Z M 9.90625 -10.21875 "/></g></g></g><g fill="#332c54" fill-opacity="1"><g transform="translate(178.800196, 263.657371)"><g><path d="M 17.953125 -24.84375 L 24.671875 -24.84375 L 24.671875 0 L 18.4375 0 L 8.8125 -13.375 L 8.8125 0 L 2.09375 0 L 2.09375 -24.84375 L 8.328125 -24.84375 L 17.953125 -11.515625 Z M 17.953125 -24.84375 "/></g></g></g><g fill="#332c54" fill-opacity="1"><g transform="translate(214.319153, 263.657371)"><g><path d="M 7.390625 0.390625 C 5.210938 0.390625 3.390625 -0.109375 1.921875 -1.109375 C 0.453125 -2.117188 -0.5625 -3.546875 -1.125 -5.390625 L 4.546875 -7.9375 C 4.828125 -7.144531 5.191406 -6.578125 5.640625 -6.234375 C 6.097656 -5.898438 6.609375 -5.734375 7.171875 -5.734375 C 7.828125 -5.734375 8.34375 -5.9375 8.71875 -6.34375 C 9.09375 -6.757812 9.28125 -7.328125 9.28125 -8.046875 L 9.28125 -24.84375 L 16.28125 -24.84375 L 16.28125 -8.921875 C 16.28125 -6.023438 15.488281 -3.75 13.90625 -2.09375 C 12.332031 -0.4375 10.160156 0.390625 7.390625 0.390625 Z M 7.390625 0.390625 "/></g></g></g><g fill="#332c54" fill-opacity="1"><g transform="translate(241.37002, 263.657371)"><g><path d="M -1.359375 0 L 9.59375 -24.84375 L 15.40625 -24.84375 L 25.96875 0 L 18.90625 0 L 17.15625 -4.4375 L 7.53125 -4.4375 L 5.703125 0 Z M 9.90625 -10.21875 L 14.84375 -10.21875 L 12.421875 -16.3125 Z M 9.90625 -10.21875 "/></g></g></g><g fill="#332c54" fill-opacity="1"><g transform="translate(274.859435, 263.657371)"><g><path d="M 2.09375 0 L 2.09375 -24.84375 L 9.09375 -24.84375 L 9.09375 -6.09375 L 19.453125 -6.09375 L 19.046875 0 Z M 2.09375 0 "/></g></g></g></svg>